<svg xmlns="http://www.w3.org/2000/svg" viewBox="0 0 32 32"><circle cx="16.3" cy="26.4" r="2.7"/><path d="M4.5 23.7c-1.5 0-2.7 1.2-2.7 2.7s1.2 2.7 2.7 2.7 2.7-1.2 2.7-2.7-1.2-2.7-2.7-2.7zM11.2 11.4c-.8-.4-1.8 0-2.1.8l-3.6 8-.1.2c-.2.8.1 1.6.9 1.9.8.4 1.8 0 2.1-.8l3.6-8 .1-.2c.2-.7-.1-1.5-.9-1.9zM16.3 21.8c.9 0 1.6-.6 1.6-1.3v-7.4c-.1-.6-.8-1.1-1.6-1.1-.9 0-1.6.6-1.6 1.3v7.4c.1.6.8 1.1 1.6 1.1zM27.5 23.7c-1.5 0-2.7 1.2-2.7 2.7s1.2 2.7 2.7 2.7 2.7-1.2 2.7-2.7-1.2-2.7-2.7-2.7zM26.2 22.4c.8-.4 1.2-1.3.8-2.1l-3.6-8c-.4-.8-1.3-1.2-2.1-.8-.8.4-1.2 1.3-.8 2.1l3.6 8c.3.8 1.3 1.1 2.1.8z"/><circle cx="16.3" cy="6.7" r="3.7"/></svg>