<svg xmlns="http://www.w3.org/2000/svg" viewBox="0 0 32 32"><path d="M28 8.1H10.1l2.5 9.4c0 .2.2.3.4.3h12.6c.2 0 .3-.1.4-.3l2.3-8.9c0-.1 0-.3-.1-.3.1-.1-.1-.2-.2-.2z" fill="none"/><path d="M31 6.5c-.7-.8-1.7-1.3-2.9-1.3h-19l-.3-1.7C8.3 2 6.8 1 5.2 1H1.9C1 1 .3 1.6.3 2.5S1 4 1.9 4h3.2c.2 0 .3.1.4.3l3.9 14c.4 1.5 1.8 2.5 3.6 2.5h12.6c1.7 0 3.2-1 3.6-2.5l2.3-8.9c.4-1.1.2-2.2-.5-2.9zm-4.9 11c-.1.2-.2.3-.4.3H13c-.2 0-.3-.1-.4-.3l-2.5-9.4h18c.1 0 .2.1.3.2 0 .1.1.2.1.3l-2.4 8.9zm-12.2 5c-2.3 0-4.3 1.9-4.3 4.3s1.9 4.3 4.3 4.3 4.3-1.9 4.3-4.3-2-4.3-4.3-4.3zm0 6.5c-1.2 0-2.2-1-2.2-2.2 0-1.2 1-2.2 2.2-2.2s2.2 1 2.2 2.2C16 28 15 29 13.9 29z"/><path d="M13.9 22.5c-2.3 0-4.3 1.9-4.3 4.3s1.9 4.3 4.3 4.3 4.3-1.9 4.3-4.3-2-4.3-4.3-4.3zm0 6.5c-1.2 0-2.2-1-2.2-2.2 0-1.2 1-2.2 2.2-2.2s2.2 1 2.2 2.2C16 28 15 29 13.9 29zm10.8-6.5c-2.3 0-4.3 1.9-4.3 4.3s1.9 4.3 4.3 4.3 4.3-1.9 4.3-4.3-2-4.3-4.3-4.3zm0 6.5c-1.2 0-2.2-1-2.2-2.2 0-1.2 1-2.2 2.2-2.2 1.2 0 2.2 1 2.2 2.2-.1 1.2-1.1 2.2-2.2 2.2z"/></svg>