<svg xmlns="http://www.w3.org/2000/svg" viewBox="0 0 32 32" style="enable-background:new 0 0 32 32" xml:space="preserve"><path d="M22.8 2.4h-4.4c-1.1 0-1.9.9-1.9 1.9s.9 1.9 1.9 1.9h4.4c1.4 0 2.6 1.2 2.6 2.6V23c0 1.4-1.2 2.6-2.6 2.6h-4.4c-1.1 0-1.9.9-1.9 1.9s.9 1.9 1.9 1.9h4.4c3.6 0 6.5-2.9 6.5-6.5v-14c0-3.6-3-6.5-6.5-6.5z"/><path d="M9.5 18.1h8.3c1 0 1.9-.9 1.9-1.9 0-1-.8-1.9-1.9-1.9H9.2l3.8-3.8c.5-.5.7-1.2.5-1.9-.2-.7-.7-1.2-1.4-1.4-.7-.2-1.4 0-1.9.5l-6.9 6.9c-.8.8-.8 2 0 2.7l6.9 6.9c.4.4.9.6 1.4.6.2 0 .3 0 .5-.1.7-.2 1.2-.7 1.4-1.4.2-.7 0-1.4-.5-1.9l-3.5-3.3z"/></svg>