<svg xmlns="http://www.w3.org/2000/svg" viewBox="0 0 32 32" style="enable-background:new 0 0 32 32" xml:space="preserve"><path d="M13.6 25.7H9.2c-1.4 0-2.6-1.2-2.6-2.6V8.9c0-1.4 1.2-2.6 2.6-2.6h4.4c1.1 0 1.9-.9 1.9-1.9s-.9-1.9-1.9-1.9H9.2C5.6 2.5 2.7 5.4 2.7 9v14.2c0 3.6 2.9 6.5 6.5 6.5h4.4c1.1 0 1.9-.9 1.9-1.9s-.8-2.1-1.9-2.1z"/><path d="m28.7 14.6-6.9-6.9c-.5-.5-1.2-.7-1.9-.5-.7.2-1.2.7-1.4 1.4-.2.7 0 1.4.5 1.9l3.5 3.5h-8.3c-1 0-1.9.9-1.9 1.9 0 1 .8 1.9 1.9 1.9h8.6L19 21.6c-.5.5-.7 1.2-.5 1.9.2.7.7 1.2 1.4 1.4.2 0 .3.1.5.1.5 0 1-.2 1.4-.6l6.9-6.9c.8-.9.8-2.1 0-2.9z"/></svg>