<svg xmlns="http://www.w3.org/2000/svg" viewBox="0 0 32 32"><path d="M15.3 21.7H9.9c-.3 0-.7.1-.9.4-.2.2-.3.5-.3.7 0 .6.6 1.1 1.2 1.1h5.4c.3 0 .6-.1.9-.4.2-.2.3-.5.3-.7 0-.3-.1-.5-.3-.7-.2-.2-.5-.4-.9-.4z"/><path d="M25.5 6H23v-.1c0-1.1-.9-1.9-1.9-1.9h-1.8v-.3c0-1.8-1.4-3.2-3.2-3.2S12.8 2 12.8 3.7v.2H11c-1.1 0-2 .9-2 2V6H6.5c-.7 0-1.2.6-1.2 1.1v23.2c0 .6.5 1.2 1.2 1.2h19.1c.6 0 1.2-.5 1.2-1.2V7.1c-.1-.6-.6-1.1-1.3-1.1zM11 10.4h10c1.1 0 1.9-.9 1.9-1.9v-.2h1.4v20.8H7.6V8.3H9v.1c0 1.1.9 2 2 2zm4.1-6.7c0-.5.4-.9.9-.9s.9.4.9.9v1.4c0 .6.5 1.2 1.2 1.2h2.6V8h-9.2V6.3H14c.6 0 1.2-.5 1.2-1.2V3.7z"/><path d="M22.1 17.3H9.9c-.3 0-.7.1-.9.4-.2.2-.3.5-.3.7 0 .6.6 1.1 1.2 1.1h12.3c.3 0 .6-.1.9-.4.2-.2.3-.5.3-.7 0-.3-.1-.5-.3-.7-.3-.3-.7-.4-1-.4zM8.7 13.9c0 .6.6 1.1 1.2 1.1h12.3c.3 0 .6-.1.9-.4.2-.2.3-.5.3-.7s-.1-.5-.3-.7c-.2-.2-.5-.3-.9-.4H9.9c-.3 0-.7.1-.9.4-.2.2-.3.5-.3.7z"/></svg>