<svg xmlns="http://www.w3.org/2000/svg" viewBox="0 0 32 32"><path d="M30 16.6c-.2-.2-.6-.4-.8-.4s-.6 0-.8.2l-.6.6c0 .2.2.4.2.6v.4c0 .8-.2 1.2-.6 1.6s-1 .6-1.6.6c-1.2 0-2-1.6-2.6-4.4-.2-.8-.2-1.6-.4-1.8-.4-1.6-1-2.8-1.8-3.6-1-.8-2-1.4-3.6-1.4-1.2 0-2 .4-2.8 1-.6.6-1 1.4-1 2.4 0 .4 0 .8.2 1.4.2.4.4.8.6 1.4-.8-.8-1.4-1.2-2-1.6-1-.2-1.6-.4-2.6-.4-.4-1-1.2-1.8-2.4-2.4-.2 0-.2-.2-.4-.2-.4-.2-.8-.6-1-1s-.2-.6-.2-1c0-.2 0-.4.2-.6l.4-.4c-1 0-1.6.2-2.2.4-.6.4-1 1-1 1.8 0 .6.2 1 .6 1.4.4.2 1 .4 1.6.8.2 0 .4 0 .6.2 1.4.4 2.2.8 2.6 1.6-1.6.2-3 .6-3.8 1.6-1 1-1.6 2.2-2 4-.4.2-.6.4-.8.8-.2.2-.2.6-.4.8l.8.4c.2 1.2.6 1.8 1.2 2.4s1.4.8 2 .8 1.4-.2 1.6-.6c.4-.4.8-1 .8-1.6v-.6c0-.2 0-.4-.2-.6-.2.2-.6.6-.8.6-.2-.2-.6 0-.8 0-.4 0-.8-.2-1.2-.4-.2-.4-.6-.8-.6-1.4 1.6-.8 3-1.6 3.8-2.4.8-1 1.4-2 1.4-3.2.8 0 1.6.2 2 .6.6.4 1.2.8 1.6 1.6-.6.2-1.2.6-1.6 1-.2.4-.4 1-.4 1.8 0 1.6.8 2.6 2 3.6 1.4 1 3 1.6 5 1.6 1.6 0 3.2-.4 4.8-1 1.6-.8 3.6-1.8 5.6-3.4.6-.4 1-1 1.4-1.4s.4-1 .4-1.4c0-.3-.2-.4-.4-.8zm-22.2.2c-.8.8-2 1.2-3.2 1.6.2-1.4.8-2.2 1.4-3 .8-.6 1.6-1 3-1.4-.2 1.2-.6 2.2-1.2 2.8z"/></svg>