<svg xmlns="http://www.w3.org/2000/svg" viewBox="0 0 32 32"><path d="M29.2 19.8c1.6-2.2 1.6-5.2 0-7.4C28.2 11 27 10 25.8 9l1.8-1.8c.8-.8.8-1.8 0-2.6s-1.8-.8-2.6 0L22.6 7c-2.2-1-4.4-1.4-6.6-1.4-7.2 0-11.4 4.2-13.2 6.8-1.6 2.2-1.6 5.2 0 7.4 1 1.4 2.2 2.4 3.4 3.4L4.4 25c-.8.8-.8 1.8 0 2.6s1.8.8 2.6 0l2.4-2.4c2 1 4.2 1.4 6.6 1.4 7.2-.3 11.4-4.5 13.2-6.8zM5.8 17.6c-.6-1-.6-2.2 0-3.2C7.4 12 10.6 9.2 16 9.2c1.4 0 2.6.2 3.8.6L17 12.4c-.4 0-.6-.2-1-.2-2 0-3.8 1.8-3.8 3.8 0 .4 0 .6.2 1l-3.6 3.6c-1.2-.8-2.2-1.8-3-3zm9.2 2c.4 0 .6.2 1 .2 2 0 3.8-1.8 3.8-3.8 0-.4 0-.6-.2-1l3.6-3.6c1.2.8 2.2 1.8 3 3 .6 1 .6 2.2 0 3.2-1.8 2.4-5 5.2-10.2 5.2-1.2 0-2.6-.2-3.8-.6 0-.1 2.8-2.7 2.8-2.6z"/></svg>