<svg xmlns="http://www.w3.org/2000/svg" viewBox="0 0 32 32"><path d="M29.41,14.51l-5.96,5.96c-3.29,3.29-8.63,3.29-11.92,0c-0.52-0.52-0.92-1.1-1.28-1.7L13.02,16 c0.13-0.13,0.29-0.21,0.45-0.3c0.19,0.65,0.53,1.27,1.04,1.79c1.64,1.64,4.32,1.64,5.96,0l5.96-5.96c1.64-1.64,1.64-4.32,0-5.96 c-1.64-1.64-4.31-1.64-5.96,0l-2.12,2.12c-1.72-0.67-3.57-0.85-5.37-0.59l4.51-4.51c3.29-3.29,8.63-3.29,11.92,0 C32.7,5.88,32.7,11.22,29.41,14.51z M13.65,24.31l-2.12,2.12c-1.64,1.64-4.32,1.64-5.96,0c-1.64-1.64-1.64-4.32,0-5.96l5.96-5.96 c1.64-1.64,4.32 1.64,5.96,0c0.51,0.51,0.85,1.13,1.04,1.79c0.16-0.09,0.32-0.16,0.45-0.3l2.77-2.77c-0.35-0.6-0.76-1.18-1.28-1.7 c-3.29-3.29-8.63-3.29-11.92,0l-5.96,5.96c-3.29,3.29-3.29,8.63,0,11.92c3.29,3.29,8.63,3.29,11.92,0l4.52-4.52 C17.22,25.16,15.37,24.98,13.65,24.31z"/></svg>
