<svg xmlns="http://www.w3.org/2000/svg" viewBox="0 0 32 32"><path d="M26.772 32C29.607 32 32 30.516 32 27.901c0-1.816-1.174-2.968-2.791-3.433v-.09c1.506-.642 2.348-1.66 2.348-3.123 0-2.459-1.95-3.855-4.852-3.855-1.728 0-3.146.687-4.43 1.795l1.639 1.994c.886-.776 1.64-1.241 2.636-1.241 1.108 0 1.728.576 1.728 1.55 0 1.13-.797 1.884-3.323 1.884v2.304c3.057 0 3.788.775 3.788 2.016 0 1.063-.908 1.662-2.282 1.662-1.196 0-2.237-.599-3.08-1.418l-1.506 2.06C22.895 31.202 24.49 32 26.772 32zM14.014 14.232h9.958v-2.727h-2.851c-.669 0-1.649.088-2.362.176 2.295-2.376 4.522-4.884 4.522-7.238C23.281 1.76 21.388 0 18.603 0c-2.027 0-3.341.748-4.745 2.222L15.64 3.96c.713-.748 1.493-1.43 2.518-1.43 1.225 0 2.005.748 2.005 2.111 0 1.98-2.54 4.378-6.149 7.744zM0 32h13.23v-4.518H9.333V7.889H5.796C4.323 8.914 2.882 9.597.622 10.09v3.455H4.52v13.936H0Z"/></svg>