<svg xmlns="http://www.w3.org/2000/svg" viewBox="0 0 32 32"><path d="M16 .4C7.4.4.4 7.4.4 16s7 15.6 15.6 15.6 15.6-7 15.6-15.6S24.6.4 16 .4zm0 28.2C9.1 28.6 3.4 22.9 3.4 16S9.1 3.4 16 3.4 28.6 9.1 28.6 16 22.9 28.6 16 28.6z"/><path d="M16 6.3c-3.3 0-6 2.7-6 6 0 .9.7 1.6 1.6 1.6.9 0 1.6-.7 1.6-1.6 0-1.6 1.3-2.8 2.8-2.8 1.6 0 2.8 1.3 2.8 2.8s-1.3 2.8-2.8 2.8c-.9 0-1.6.7-1.6 1.6v2.7c0 .9.7 1.6 1.6 1.6.9 0 1.6-.7 1.6-1.6V18c2.6-.7 4.4-3.1 4.4-5.7 0-3.3-2.7-6-6-6zM16 22.6c-.9 0-1.6.7-1.6 1.6 0 .9.7 1.6 1.6 1.6.9 0 1.6-.7 1.6-1.6 0-.9-.7-1.6-1.6-1.6z"/></svg>