<svg xmlns="http://www.w3.org/2000/svg" viewBox="0 0 32 32"><path d="M29.8 24.7s0-.1.1-.1v-.1-.2-.2-5.6-5.6c0-.6-.2-1-.8-1.2-1.8-.7-3.6-1.4-5.3-2-.7-.3-1.2-.1-1.4.5 0 .1-.1.2-.1.3-.1.5.2.8.8 1.1l2.4.9h.1c.3.2.3.6 0 .8h-.1c-3 1.2-6.1 2.4-9.1 3.6-.2.1-.5.1-.7.1-3.1-1.2-6.2-2.5-9.4-3.8h-.1l-.1-.1c-.1-.3-.1-.6.2-.7.8-.3 1.7-.6 2.5-1h.5c.5-.3.7-.7.5-1.2-.3-.7-.8-.9-1.5-.7h-.1-.1H8c-1.7.6-3.4 1.3-5.2 1.9h-.1-.1s-.1 0-.1.1c0 0-.1 0-.1.1l-.1.1-.1.1s0 .1-.1.1V24s0 .1.1.1l.1.1.1.1s.1 0 .1.1c.1 0 .1.1.2.1 4.2 2.1 8.4 4.1 12.5 6.2 0 0 .1 0 .1.1h1.2s.1 0 .1-.1c4.2-2.1 8.3-4.2 12.5-6.2.1 0 .1-.1.2-.1l.1-.1.1-.1c.2.6.3.6.3.5z"/><path d="M15.4 12.1c.2.2.6.4 1 .2l4.2-4.2c.3-.3.3-.8 0-1.2-.3-.3-.8-.3-1.2 0l-2.6 2.6V1.2c0-.5-.3-.8-.8-.8s-.8.3-.8.8v8.3l-2.6-2.7c-.3-.3-.8-.3-1.2 0-.3.3-.3.8 0 1.2l4 4.1z"/></svg>