<svg xmlns="http://www.w3.org/2000/svg" viewBox="0 0 32 32"><path d="M12.9 18.4c-.7-.7-1.8-.7-2.5 0s-.7 1.8 0 2.5l.6.6H7.3V10.4h3.1c1 0 1.8-.8 1.8-1.8s-.8-1.8-1.8-1.8H5.6c-1 0-1.8.8-1.8 1.8v14.8c0 1 .8 1.8 1.8 1.8h5.5l-.6.6c-.7.7-.7 1.8 0 2.5s1.8.7 2.5 0l3.8-3.8c.7-.7.7-1.8 0-2.5-.1.1-3.9-3.6-3.9-3.6zM26.3 6.7h-5.5l.6-.6c.7-.7.7-1.8 0-2.5s-1.8-.7-2.5 0l-3.7 3.7c-.7.7-.7 1.8 0 2.5l3.8 3.8c.7.7 1.8.7 2.5 0s.7-1.8 0-2.5l-.6-.6h3.7v11.3h-3.1c-1 0-1.8.8-1.8 1.8s.8 1.8 1.8 1.8h4.9c1 0 1.8-.8 1.8-1.8V8.7c0-1.1-.8-2-1.9-2z"/></svg>