<svg xmlns="http://www.w3.org/2000/svg" viewBox="0 0 32 32"><path d="M8.4 7.3c-.3 0-.6.1-.9.4L1 13.6c-.4.4-.8.8-.8 1.6s.3 1.2.7 1.6l6.5 5.9c.2.2.5.5 1 .5.7 0 1.3-.8 1.3-1.7 0-.8-.3-1.2-.7-1.5l-5.2-4.8L9 10.5c.4-.3.7-.8.7-1.5-.1-1-.6-1.7-1.3-1.7zm10.8-3.2c-.8 0-1.1.9-1.3 1.5l-6.5 18.1v.1c-.2.4-.4 1-.4 1.6 0 1.1.6 2 1.4 2 .8 0 1.2-.9 1.3-1.4l6.7-18.6c.1-.3.2-.8.2-1.4-.1-1-.7-1.9-1.4-1.9zm11.9 9.5l-6.5-5.9c-.3-.3-.6-.4-.9-.4-.7 0-1.3.7-1.3 1.7 0 .8.3 1.2.7 1.5l5.2 4.7L23 20c-.3.3-.7.7-.7 1.5 0 .9.6 1.7 1.3 1.7.4 0 .8-.3 1-.5l6.4-5.9c.4-.4.8-.7.8-1.6 0-.8-.3-1.2-.7-1.6z"/></svg>