<svg xmlns="http://www.w3.org/2000/svg" viewBox="0 0 32 32"><circle cx="16.1" cy="15.6" r="2"/><path d="M4.8 16l6.9-6.9c.7-.7.7-1.7 0-2.4S10 6 9.3 6.7l-8.1 8.1c-.2.3-.4.8-.4 1.2 0 .4.2.9.5 1.2l8.1 8.1c.3.3.8.5 1.2.5.4 0 .9-.2 1.2-.5.3-.3.5-.7.5-1.2 0-.4-.2-.9-.5-1.2l-7-6.9z"/><circle cx="10.8" cy="15.6" r="2"/><circle cx="21.5" cy="15.6" r="2"/><path d="M30.7 14.8l-8.1-8.1c-.3-.3-.8-.5-1.2-.5-.4 0-.9.2-1.2.5-.3.3-.5.7-.5 1.2 0 .4.2.9.5 1.2l6.9 6.9-6.9 6.9c-.7.7-.7 1.7 0 2.4.3.3.7.5 1.2.5.4 0 .9-.2 1.2-.5l8.1-8.1c.3-.3.5-.7.5-1.2 0-.4-.2-.9-.5-1.2z"/></svg>