<svg xmlns="http://www.w3.org/2000/svg" viewBox="0 0 32 32"><path d="M27.5 20.1l-2.8-1c-1-.3-2 .3-2.3 1.2-.2.9.2 1.9 1.1 2.2l2.8.9c.2.1.4.1.6.1.3 0 .5-.1.8-.2.4-.2.8-.6.9-1.1.3-.9-.1-1.8-1.1-2.1zm-9.3-8.9l-7.5 7.5c-.7.7-.6 1.9.1 2.6.3.3.8.5 1.2.5.5 0 .9-.2 1.3-.5l7.5-7.5c.7-.7.7-1.8 0-2.6-.7-.7-1.9-.7-2.6 0zM22.1 24c-.3-.9-1.3-1.5-2.3-1.2-.9.3-1.5 1.3-1.2 2.3l.9 2.8c.3.8 1 1.2 1.7 1.2.2 0 .4 0 .6-.1.5-.2.8-.5 1-.9.2-.4.2-.9.1-1.4l-.8-2.7zM9.4 8.4c.2.8 1 1.3 1.7 1.3.2 0 .4 0 .5-.1.9-.3 1.5-1.3 1.2-2.2v-.1l-1-2.8c-.3-.9-1.3-1.5-2.3-1.2-.4.1-.8.5-1 .9-.1.4-.2.9 0 1.3l.9 2.9zM4 12.3l2.8.9c.2.1.4.1.6.1.3 0 .5-.1.8-.2.5-.1.8-.5.9-1 .2-.5.1-1-.1-1.4-.2-.4-.6-.7-1-.9l-2.8-.9c-.5-.1-1-.1-1.4.1-.5.2-.8.6-.9 1.1-.3 1 .2 1.9 1.1 2.2z"/><path d="M15.7 10.6c.4 0 .8-.1 1.1-.3h.1l.1-.2 3.7-3.7c1.3-1.3 3.6-1.3 4.9 0 .7.7 1 1.5 1 2.4s-.4 1.8-1 2.4L22 14.9c-.7.7-.8 1.8-.1 2.6.3.4.8.6 1.3.6h.1c.5 0 .9-.2 1.2-.5l3.8-3.8c1.4-1.3 2.2-3 2.3-4.9.1-1.9-.6-3.7-1.8-5.1-2.7-2.9-7.1-3.1-10-.4l-4.1 4.1c-.4.3-.6.8-.6 1.3s.2 1 .5 1.3c.2.3.6.5 1.1.5zm-1.2 11.8l-3.7 3.7c-1.3 1.3-3.5 1.3-4.9 0-1.3-1.3-1.3-3.5 0-4.9l3.7-3.8c.3-.4.5-.8.5-1.3s-.2-.9-.6-1.3c-.7-.6-1.8-.6-2.5 0l-3.7 3.8C2 20 1.4 21.8 1.5 23.7c.1 1.9.9 3.6 2.3 4.9 1.3 1.2 3 1.8 4.8 1.8 1.7 0 3.5-.6 4.8-1.8l3.7-3.7c.7-.7.6-1.9-.1-2.6-.7-.6-1.8-.6-2.5.1z"/></svg>