<svg id="Layer_1" xmlns="http://www.w3.org/2000/svg" viewBox="0 0 24 24"><style></style><linearGradient id="SVGID_1_" gradientUnits="userSpaceOnUse" x1="12" y1="24" x2="12"><stop offset="0" stop-color="#e68c06"/><stop offset="1" stop-color="#f6d610"/></linearGradient><path fill="url(#SVGID_1_)" d="M0 0h24v24H0z"/><path d="M18.007 17.997s0-.825-.068-1.256c-.057-.34-.529-.79-2.537-1.527-1.978-.725-1.856-.371-1.856-1.706 0-.865.442-.362.723-2.006.109-.646.197-.216.435-1.253.125-.543-.084-.584-.059-.843.025-.259.05-.491.097-1.021.055-.654-.555-2.382-2.742-2.382S9.203 7.731 9.262 8.389c.047.528.072.763.097 1.021.025.26-.184.3-.059.844.238 1.033.326.603.435 1.253.282 1.642.722 1.14.722 2.005 0 1.337.122.984-1.856 1.706-2.009.734-2.485 1.187-2.537 1.528-.072.427-.072 1.252-.072 1.252h12.015z" fill="#fff"/></svg>